# xmcd
#
# Track frame offsets:
#	150
#	14862
#	29309
#	42427
#	58248
#	67856
#	82813
#	97743
#	112698
#	125104
#	134819
#	149036
#	162440
#	171124
#	184310
#	195899
#
# Disc length: 2774 seconds
#
# Revision: 6
# Processed by: cddbd v1.5.2PL0 Copyright (c) Steve Scherf et al.
# Submitted via: audiograbber 1.83.01
#
DISCID=e30ad410
DTITLE=Various Artist - Ohrwürmer - Country Hits
DYEAR=2006
DGENRE=Country
TTITLE0=John Denver - Take Me Home Country Road
TTITLE1=Bellamy Brothers - If I Said You Have A Beautiful Body
TTITLE2=Kenny Rogers - Ruby, Don´t Take Your Love To Town
TTITLE3=Billie Jo Spears - Blanket On The Ground
TTITLE4=Donna Fargo - Sticks And Stones
TTITLE5=Frankie Lane - Sixteen Tons
TTITLE6=Jeannie C Riley - Harper Valley P T A
TTITLE7=Willie Nelson - Face Of The Fighter
TTITLE8=Freddie Fender - Wasted Days And Wasted Nights
TTITLE9=Dolly Parton - Release Me
TTITLE10=Sammy´s Saloon - Country Guitar No 1
TTITLE11=Patti Page - Tennessee Waltz
TTITLE12=Conway Twitty - Blue Is The Way That I Feel
TTITLE13=Stu Stevens - Love Me Tender
TTITLE14=Johnny Earle - Skiff-A-Billy Line Dance
TTITLE15=Ray Price - Let It Rain, Let Her Cry
EXTD=YEAR: 2006
EXTT0=
EXTT1=
EXTT2=
EXTT3=
EXTT4=
EXTT5=
EXTT6=
EXTT7=
EXTT8=
EXTT9=
EXTT10=
EXTT11=
EXTT12=
EXTT13=
EXTT14=
EXTT15=
PLAYORDER=
